<?xml version="1.0" encoding="UTF-8"?><svg id="Camada_2" xmlns="http://www.w3.org/2000/svg" viewBox="0 0 1098.51 273.01"><defs><style>.cls-1{fill:#ffffff;}</style></defs><g id="Layer_1"><path class="cls-1" d="M637.34,62.1c0-34.27,28.06-62.1,64.77-62.1s64.77,27.83,64.77,62.1-27.88,62.44-64.77,62.44-64.77-28-64.77-62.44ZM751.72,83.63c6.43-31.82-10.34-70.7-42.83-78.4-30.13-7.14-51.54,11-56.39,35.69-6.43,31.82,10.34,70.71,42.83,78.41,29.96,7.1,51.54-11,56.39-35.69Z"/><path class="cls-1" d="M777.66,1.7h13.57c-2.04,39.53-2.04,79.07-.17,118.43,20.7,0,31.64-2.54,52.34-5.77v8.48h-65.75c2.04-40.38,2.04-80.76,0-121.15Z"/><path class="cls-1" d="M859.61,1.7h11.88c-2.04,40.38-2.04,80.76,0,121.15h-11.88c2.04-40.38,2.04-80.76,0-121.15Z"/><path class="cls-1" d="M416.68,95.96c-8.64,17.95-27.62,29.21-52.3,23.36-32.49-7.7-49.26-46.59-42.83-78.41,4.85-24.69,26.26-42.83,56.39-35.69,14.58,3.46,25.99,13.21,33.56,25.77l9.15-9.15c-11.78-13.36-29.42-21.85-49.49-21.85-36.72,0-64.77,27.83-64.77,62.1s28.58,62.44,64.77,62.44c21.03,0,39.12-9.1,50.79-23.3l-5.28-5.28Z"/><path class="cls-1" d="M978.38,1.7c1.37,29.53,1.85,67.02,1.99,99.63-26.65-32.25-53.19-67.41-74.78-99.63h-15.1c0,40.47-.01,80.94-2.04,121.41h6.79c-1.57-33.94-1.98-78.37-2.03-113.85,27.45,34.3,62.35,80.67,85.53,113.85h4.39c0-40.47.01-80.94,2.04-121.41h-6.79Z"/><path class="cls-1" d="M617.09,112.59c-6.13-6.45-13.18-16.87-20.09-25.64-2.31-2.93-5.26-5.19-8.58-6.67,23.9-3.13,39.25-17.37,39.25-38.71,0-25.45-19.85-39.87-49.54-39.87h-40.21c2.04,40.38,2.04,80.76,0,121.15h14.42c-1.61-19.25-1.19-93.83-.17-118.43h20.7c23.41,0,41.4,9.67,41.4,37.16,0,25.11-17.99,36.65-41.4,36.65h-17.05v2.71h13.13c7.94,1.03,15.16,5.31,19.86,11.92,6.06,8.51,13.07,19.78,20.23,25.83,8.14,6.88,12.95,6.12,26.53,6.12v-3.39c-7.64,0-11.03-.85-18.47-8.82Z"/><path class="cls-1" d="M527.56,122.84L479.2,1.79h-15.42l2.7,6.73c-13.6,38.11-27.17,76.22-43.02,114.33h7.06c2.5-9.8,7.37-24.85,12.88-40.96,7.9-5.86,18.55-8.37,31.11-5.4,13.05,3.09,22.94,12.47,28.92,24.26h0s8.85,22.1,8.85,22.1h15.27ZM468,71.98c-8.26,0-15.98,1.72-22.84,4.8,8.67-25.11,18.43-51.67,22.94-64.25l26.52,66.2c-7.77-4.29-16.84-6.75-26.61-6.75Z"/><path class="cls-1" d="M1098.51,122.84L1050.15,1.79h-15.42l2.7,6.73c-13.6,38.11-27.17,76.22-43.02,114.33h7.06c2.5-9.8,7.37-24.85,12.88-40.96,7.9-5.86,18.55-8.37,31.11-5.4,13.05,3.09,22.94,12.47,28.92,24.26h0s8.85,22.1,8.85,22.1h15.27ZM1038.96,71.98c-8.26,0-15.98,1.72-22.84,4.8,8.67-25.11,18.43-51.67,22.94-64.25l26.52,66.2c-7.77-4.29-16.84-6.75-26.61-6.75Z"/><path class="cls-1" d="M909.66,210.56c0-34.27,28.06-62.1,64.77-62.1s64.77,27.83,64.77,62.1-27.88,62.44-64.77,62.44-64.77-28-64.77-62.44ZM1024.04,232.09c6.43-31.82-10.34-70.7-42.83-78.4-30.13-7.14-51.54,11-56.39,35.69-6.43,31.82,10.34,70.71,42.83,78.41,29.96,7.1,51.54-11,56.39-35.69Z"/><path class="cls-1" d="M338.97,150.16h12.56c9.5,33.76,20.19,67.53,32.92,101.46,11.54-33.76,22.91-67.7,33.76-101.46h12.56c8.31,40.38,18.83,80.76,31.05,121.15h-15.27c-7.47-37.16-16.8-74.66-28-111.64-11.54,36.99-24.77,74.49-33.93,111.64h-8.48c-10.01-38.52-22.4-75.67-36.48-111.64-9.16,37.33-18.83,74.49-26.13,111.64h-7.13c12.73-40.38,22.4-80.76,32.58-121.15Z"/><path class="cls-1" d="M798.1,150.16h38.69c42.08,0,61.42,29.69,61.42,60.74s-19.34,60.4-61.42,60.4h-38.69c2.04-40.38,2.04-80.76,0-121.15ZM833.22,268.59c33.09,0,51.07-27.66,51.07-58.03s-17.81-57.69-50.39-57.69h-21.55c-1.87,38.51-1.87,77.2,0,115.72h20.87Z"/><path class="cls-1" d="M685.61,244.43c-8.64,17.95-27.62,29.21-52.3,23.36-32.49-7.7-49.26-46.59-42.83-78.41,4.85-24.69,26.26-42.83,56.39-35.69,14.58,3.46,25.99,13.21,33.56,25.77l9.15-9.15c-11.78-13.36-29.42-21.85-49.49-21.85-36.72,0-64.77,27.83-64.77,62.1s28.58,62.44,64.77,62.44c21.03,0,39.12-9.1,50.79-23.3l-5.28-5.28Z"/><path class="cls-1" d="M719.2,268.59c-.57-18.52-.84-40.28-.82-61.32,15.51.13,31.01,2.78,46.38,5.76v-8.48h-46.38c.04-18.94.31-37.14.82-51.67,20.7,0,41.4,2.71,61.93,5.77v-8.48h-76.18c2.03,40.38,2.03,80.76,0,121.15h76.35v-8.48c-20.7,3.22-41.4,5.77-62.1,5.77Z"/><path class="cls-1" d="M578,271.35l-48.36-121.06h-15.42l2.7,6.73c-13.6,38.11-27.17,76.22-43.02,114.33h7.06c2.5-9.8,7.37-24.85,12.88-40.96,7.9-5.86,18.55-8.37,31.11-5.4,13.05,3.09,22.94,12.47,28.92,24.26h0s8.85,22.1,8.85,22.1h15.27ZM518.44,220.49c-8.26,0-15.98,1.72-22.84,4.8,8.67-25.11,18.43-51.67,22.94-64.25l26.52,66.2c-7.77-4.29-16.84-6.75-26.61-6.75Z"/><path class="cls-1" d="M241.41,94.62c-.95-.57-1.92-1.11-2.9-1.62,4.65-14.68,3.45-31.43-5.36-44.37-11.76-17.3-33.25-23.26-52.99-18.08-1.07.27-2.14.57-3.2.9-7.09-13.67-19.78-24.67-35.16-27.59C121.25-.06,101.85,10.93,91.55,28.54c-.57.95-1.11,1.92-1.62,2.9-14.68-4.65-31.43-3.46-44.37,5.36-17.3,11.76-23.26,33.25-18.08,52.99.27,1.07.57,2.14.9,3.19-13.67,7.09-24.67,19.78-27.59,35.16-3.92,20.55,7.07,39.96,24.68,50.26.95.57,1.92,1.11,2.9,1.62-4.65,14.68-3.45,31.43,5.36,44.37,11.76,17.3,33.25,23.26,52.99,18.08,1.07-.27,2.14-.57,3.2-.9,7.09,13.67,19.78,24.67,35.16,27.59,20.55,3.92,39.96-7.07,50.26-24.68.57-.95,1.11-1.92,1.62-2.9,14.68,4.65,31.43,3.46,44.37-5.36,17.3-11.76,23.26-33.25,18.08-52.99-.27-1.07-.57-2.14-.9-3.19,13.67-7.09,24.67-19.78,27.59-35.16,3.92-20.55-7.07-39.96-24.68-50.26ZM187.25,135c-.48.21-.59,2.75,0,3,6.4,2.8,12.21,6.36,17.46,10.83,7.94,6.75,14.47,15.29,18.56,24.88-15.96,6.44-34.84,6.12-50.7-.22-.49-.2-2.36,1.53-2.13,2.12,2.54,6.51,4.14,13.13,4.69,20,.84,10.39-.58,21.04-4.48,30.71-15.84-6.73-28.96-20.31-35.68-36.01-.21-.48-2.75-.59-3-.01-2.8,6.4-6.36,12.21-10.83,17.46-6.75,7.94-15.29,14.47-24.88,18.56-6.44-15.96-6.12-34.84.22-50.7.2-.49-1.53-2.36-2.12-2.13-6.51,2.54-13.13,4.14-20,4.69-10.39.84-21.04-.58-30.71-4.48,6.73-15.84,20.31-28.96,36.01-35.68.48-.21.59-2.75,0-3-6.4-2.8-12.21-6.36-17.46-10.83-7.94-6.75-14.47-15.29-18.56-24.88,15.96-6.44,34.84-6.12,50.7.22.49.2,2.36-1.53,2.13-2.12-2.54-6.51-4.14-13.13-4.69-20-.84-10.39.58-21.04,4.48-30.71,15.84,6.73,28.96,20.31,35.68,36.01.21.48,2.75.59,3,.01,2.8-6.4,6.36-12.21,10.83-17.46,6.75-7.94,15.29-14.47,24.88-18.56,6.44,15.96,6.12,34.84-.22,50.7-.2.49,1.53,2.36,2.12,2.13,6.51-2.54,13.13-4.14,20-4.69,10.39-.84,21.04.58,30.71,4.48-6.73,15.84-20.31,28.96-36.01,35.68ZM227.74,79.28c-.09,3.05-.44,6.05-1.04,9.01-9.07-2.6-18.73-3.22-28.01-1.88-4.98.73-9.85,2-14.47,3.85-3.22,1.29-6.31,2.85-9.21,4.68,1.83-2.9,3.39-5.99,4.68-9.21,5.32-13.4,5.94-28.63,1.95-42.52,24.36-5.08,46.59,8.88,46.1,36.08ZM159.66,29.36c2.09,2.22,3.97,4.59,5.63,7.1-8.25,4.58-15.52,10.97-21.14,18.48-3.01,4.04-5.55,8.38-7.51,12.95-1.36,3.19-2.45,6.48-3.2,9.82-.75-3.34-1.84-6.63-3.2-9.82-5.71-13.24-16.04-24.44-28.69-31.45,13.65-20.83,39.18-26.67,58.1-7.09ZM76.22,42.2c3.05.09,6.05.44,9.01,1.04-2.6,9.07-3.22,18.73-1.88,28.01.73,4.98,2,9.85,3.85,14.47,1.29,3.22,2.85,6.31,4.68,9.21-2.9-1.83-5.99-3.39-9.21-4.68-13.4-5.32-28.63-5.94-42.52-1.95-5.08-24.36,8.88-46.59,36.08-46.1ZM26.29,110.29c2.22-2.09,4.59-3.97,7.1-5.63,4.58,8.25,10.97,15.52,18.48,21.14,4.04,3.01,8.38,5.55,12.95,7.51,3.19,1.36,6.48,2.45,9.82,3.2-3.34.75-6.63,1.84-9.82,3.2-13.24,5.71-24.44,16.04-31.45,28.69-20.83-13.65-26.67-39.18-7.09-58.1ZM39.14,193.73c.09-3.05.44-6.05,1.04-9.01,9.07,2.6,18.73,3.22,28.01,1.88,4.98-.73,9.85-2,14.47-3.85,3.22-1.29,6.31-2.85,9.21-4.68-1.83,2.9-3.39,5.99-4.68,9.21-5.32,13.4-5.94,28.63-1.95,42.52-24.36,5.08-46.59-8.88-46.1-36.08ZM107.22,243.65c-2.09-2.22-3.97-4.59-5.63-7.1,8.25-4.58,15.52-10.97,21.14-18.48,3.01-4.04,5.55-8.38,7.51-12.95,1.36-3.19,2.45-6.48,3.2-9.82.75,3.34,1.84,6.63,3.2,9.82,5.71,13.24,16.04,24.44,28.69,31.45-13.65,20.83-39.18,26.67-58.1,7.09ZM190.67,230.81c-3.05-.09-6.05-.44-9.01-1.04,2.6-9.07,3.22-18.73,1.88-28.01-.73-4.98-2-9.85-3.85-14.47-1.29-3.22-2.85-6.31-4.68-9.21,2.9,1.83,5.99,3.39,9.21,4.68,13.4,5.32,28.63,5.94,42.52,1.95,5.08,24.36-8.88,46.59-36.08,46.1ZM240.59,162.72c-2.22,2.09-4.59,3.97-7.1,5.63-4.58-8.25-10.97-15.52-18.48-21.14-4.04-3.01-8.38-5.55-12.95-7.51-3.19-1.36-6.48-2.45-9.82-3.2,3.34-.75,6.63-1.84,9.82-3.2,13.24-5.71,24.44-16.04,31.45-28.69,20.83,13.65,26.67,39.18,7.09,58.1Z"/></g></svg>