<?xml version="1.0" encoding="UTF-8"?><svg id="Camada_1" xmlns="http://www.w3.org/2000/svg" viewBox="0 0 792.12 273.01"><defs><style>.cls-1{fill:#1f1f1f;}</style></defs><path class="cls-1" d="M330.95,62.1c0-34.27,28.06-62.1,64.77-62.1s64.77,27.83,64.77,62.1-27.88,62.44-64.77,62.44-64.77-28-64.77-62.44ZM445.33,83.63c6.43-31.82-10.34-70.7-42.83-78.4-30.13-7.14-51.54,11-56.39,35.69-6.43,31.82,10.34,70.71,42.83,78.41,29.96,7.1,51.54-11,56.39-35.69Z"/><path class="cls-1" d="M404.44,62.01c-.08.03-.1.46,0,.5,1.07.47,2.05,1.07,2.93,1.82,1.33,1.13,2.43,2.57,3.12,4.18-2.68,1.08-5.85,1.03-8.51-.04-.08-.03-.4.26-.36.36.43,1.09.69,2.2.79,3.36.14,1.74-.1,3.53-.75,5.16-2.66-1.13-4.86-3.41-5.99-6.05-.03-.08-.46-.1-.5,0-.47,1.07-1.07,2.05-1.82,2.93-1.13,1.33-2.57,2.43-4.18,3.12-1.08-2.68-1.03-5.85.04-8.51.03-.08-.26-.4-.36-.36-1.09.43-2.2.69-3.36.79-1.74.14-3.53-.1-5.16-.75,1.13-2.66,3.41-4.86,6.05-5.99.08-.03.1-.46,0-.5-1.07-.47-2.05-1.07-2.93-1.82-1.33-1.13-2.43-2.57-3.12-4.18,2.68-1.08,5.85-1.03,8.51.04.08.03.4-.26.36-.36-.43-1.09-.69-2.2-.79-3.36-.14-1.74.1-3.53.75-5.16,2.66,1.13,4.86,3.41,5.99,6.05.03.08.46.1.5,0,.47-1.07,1.07-2.05,1.82-2.93,1.13-1.33,2.57-2.43,4.18-3.12,1.08,2.68,1.03,5.85-.04,8.51-.03.08.26.4.36.36,1.09-.43,2.2-.69,3.36-.79,1.74-.14,3.53.1,5.16.75-1.13,2.66-3.41,4.86-6.05,5.99Z"/><path class="cls-1" d="M471.27,1.7h13.57c-2.04,39.53-2.04,79.07-.17,118.43,20.7,0,31.64-2.54,52.34-5.77v8.48h-65.75c2.04-40.38,2.04-80.76,0-121.15Z"/><path class="cls-1" d="M553.22,1.7h11.88c-2.04,40.38-2.04,80.76,0,121.15h-11.88c2.04-40.38,2.04-80.76,0-121.15Z"/><path class="cls-1" d="M110.29,95.96c-8.64,17.95-27.62,29.21-52.3,23.36C25.5,111.62,8.73,72.73,15.17,40.91,20.01,16.23,41.42-1.92,71.55,5.22c14.58,3.46,25.99,13.21,33.56,25.77l9.15-9.15C102.48,8.49,84.85,0,64.77,0,28.06,0,0,27.83,0,62.1s28.58,62.44,64.77,62.44c21.03,0,39.12-9.1,50.79-23.3l-5.28-5.28Z"/><path class="cls-1" d="M671.99,1.7c1.37,29.53,1.85,67.02,1.99,99.63-26.65-32.25-53.19-67.41-74.78-99.63h-15.1c0,40.47-.01,80.94-2.04,121.41h6.79c-1.57-33.94-1.98-78.37-2.03-113.85,27.45,34.3,62.35,80.67,85.53,113.85h4.39c0-40.47.01-80.94,2.04-121.41h-6.79Z"/><path class="cls-1" d="M310.7,112.59c-6.13-6.45-13.18-16.87-20.09-25.64-2.31-2.93-5.26-5.19-8.58-6.67,23.9-3.13,39.25-17.37,39.25-38.71,0-25.45-19.85-39.87-49.54-39.87h-40.21c2.04,40.38,2.04,80.76,0,121.15h14.42c-1.61-19.25-1.19-93.83-.17-118.43h20.7c23.41,0,41.4,9.67,41.4,37.16,0,25.11-17.99,36.65-41.4,36.65h-17.05v2.71h13.13c7.94,1.03,15.16,5.31,19.86,11.92,6.06,8.51,13.07,19.78,20.23,25.83,8.14,6.88,12.95,6.12,26.53,6.12v-3.39c-7.64,0-11.03-.85-18.47-8.82Z"/><path class="cls-1" d="M221.17,122.84L172.81,1.79h-15.42l2.7,6.73c-13.6,38.11-27.17,76.22-43.02,114.33h7.06c2.5-9.8,7.37-24.85,12.88-40.96,7.9-5.86,18.55-8.37,31.11-5.4,13.05,3.09,22.94,12.47,28.92,24.26h0s8.85,22.1,8.85,22.1h15.27ZM161.61,71.98c-8.26,0-15.98,1.72-22.84,4.8,8.67-25.11,18.43-51.67,22.94-64.25l26.52,66.2c-7.77-4.29-16.84-6.75-26.61-6.75Z"/><path class="cls-1" d="M792.12,122.84L743.77,1.79h-15.42l2.7,6.73c-13.6,38.11-27.17,76.22-43.02,114.33h7.06c2.5-9.8,7.37-24.85,12.88-40.96,7.9-5.86,18.55-8.37,31.11-5.4,13.05,3.09,22.94,12.47,28.92,24.26h0s8.85,22.1,8.85,22.1h15.27ZM732.57,71.98c-8.26,0-15.98,1.72-22.84,4.8,8.67-25.11,18.43-51.67,22.94-64.25l26.52,66.2c-7.77-4.29-16.84-6.75-26.61-6.75Z"/><path class="cls-1" d="M632.93,210.56c0-34.27,28.06-62.1,64.77-62.1s64.77,27.83,64.77,62.1-27.88,62.44-64.77,62.44-64.77-28-64.77-62.44ZM747.3,232.09c6.43-31.82-10.34-70.7-42.83-78.4-30.13-7.14-51.54,11-56.39,35.69-6.43,31.82,10.34,70.71,42.83,78.41,29.96,7.1,51.54-11,56.39-35.69Z"/><path class="cls-1" d="M62.23,150.16h12.56c9.5,33.76,20.19,67.53,32.92,101.46,11.54-33.76,22.91-67.7,33.76-101.46h12.56c8.31,40.38,18.83,80.76,31.05,121.15h-15.27c-7.47-37.16-16.8-74.66-28-111.64-11.54,36.99-24.77,74.49-33.93,111.64h-8.48c-10.01-38.52-22.4-75.67-36.48-111.64-9.16,37.33-18.83,74.49-26.13,111.64h-7.13c12.73-40.38,22.4-80.76,32.58-121.15Z"/><path class="cls-1" d="M521.37,150.16h38.69c42.08,0,61.42,29.69,61.42,60.74s-19.34,60.4-61.42,60.4h-38.69c2.04-40.38,2.04-80.76,0-121.15ZM556.49,268.59c33.09,0,51.07-27.66,51.07-58.03s-17.81-57.69-50.39-57.69h-21.55c-1.87,38.51-1.87,77.2,0,115.72h20.87Z"/><path class="cls-1" d="M408.88,244.43c-8.64,17.95-27.62,29.21-52.3,23.36-32.49-7.7-49.26-46.59-42.83-78.41,4.85-24.69,26.26-42.83,56.39-35.69,14.58,3.46,25.99,13.21,33.56,25.77l9.15-9.15c-11.78-13.36-29.42-21.85-49.49-21.85-36.72,0-64.77,27.83-64.77,62.1s28.58,62.44,64.77,62.44c21.03,0,39.12-9.1,50.79-23.3l-5.28-5.28Z"/><path class="cls-1" d="M442.47,268.59c-.57-18.52-.84-40.28-.82-61.32,15.51.13,31.01,2.78,46.38,5.76v-8.48h-46.38c.04-18.94.31-37.14.82-51.67,20.7,0,41.4,2.71,61.93,5.77v-8.48h-76.18c2.03,40.38,2.03,80.76,0,121.15h76.35v-8.48c-20.7,3.22-41.4,5.77-62.1,5.77Z"/><path class="cls-1" d="M301.26,271.35l-48.36-121.06h-15.42l2.7,6.73c-13.6,38.11-27.17,76.22-43.02,114.33h7.06c2.5-9.8,7.37-24.85,12.88-40.96,7.9-5.86,18.55-8.37,31.11-5.4,13.05,3.09,22.94,12.47,28.92,24.26h0s8.85,22.1,8.85,22.1h15.27ZM241.71,220.49c-8.26,0-15.98,1.72-22.84,4.8,8.67-25.11,18.43-51.67,22.94-64.25l26.52,66.2c-7.77-4.29-16.84-6.75-26.61-6.75Z"/></svg>