<?xml version="1.0" encoding="UTF-8"?>
<svg id="Camada_1" data-name="Camada 1" xmlns="http://www.w3.org/2000/svg" viewBox="0 0 267.24 266.94">
  <defs>
    <style>
      .cls-1 {
        fill: transparent;
      }

      .cls-2 {
        fill: #a9856d;
      }
    </style>
  </defs>
  <path class="cls-1" d="M241.41,91.55c-.95-.57-1.92-1.11-2.9-1.62,4.65-14.68,3.45-31.43-5.36-44.37-11.76-17.3-33.25-23.26-52.99-18.08-1.07.27-2.14.57-3.2.9-7.09-13.67-19.78-24.67-35.16-27.59-20.55-3.92-39.96,7.07-50.26,24.68-.57.95-1.11,1.92-1.62,2.9-14.68-4.65-31.43-3.46-44.37,5.36-17.3,11.76-23.26,33.25-18.08,52.99.27,1.07.57,2.14.9,3.19C14.71,97.01,3.71,109.7.79,125.08c-3.92,20.55,7.07,39.96,24.68,50.26.95.57,1.92,1.11,2.9,1.62-4.65,14.68-3.45,31.43,5.36,44.37,11.76,17.3,33.25,23.26,52.99,18.08,1.07-.27,2.14-.57,3.2-.9,7.09,13.67,19.78,24.67,35.16,27.59,20.55,3.92,39.96-7.07,50.26-24.68.57-.95,1.11-1.92,1.62-2.9,14.68,4.65,31.43,3.46,44.37-5.36,17.3-11.76,23.26-33.25,18.08-52.99-.27-1.07-.57-2.14-.9-3.2,13.67-7.09,24.67-19.78,27.59-35.16,3.92-20.55-7.07-39.96-24.68-50.26Z"/>
  <path class="cls-2" d="M241.77,91.61c-.95-.57-1.92-1.11-2.9-1.62,4.65-14.68,3.45-31.43-5.36-44.37-11.76-17.3-33.25-23.26-52.99-18.08-1.07.27-2.14.57-3.2.9-7.09-13.67-19.78-24.67-35.16-27.59-20.55-3.92-39.96,7.07-50.26,24.68-.57.95-1.11,1.92-1.62,2.9-14.68-4.65-31.43-3.46-44.37,5.36-17.3,11.76-23.26,33.25-18.08,52.99.27,1.07.57,2.14.9,3.19-13.67,7.09-24.67,19.78-27.59,35.16-3.92,20.55,7.07,39.96,24.68,50.26.95.57,1.92,1.11,2.9,1.62-4.65,14.68-3.45,31.43,5.36,44.37,11.76,17.3,33.25,23.26,52.99,18.08,1.07-.27,2.14-.57,3.2-.9,7.09,13.67,19.78,24.67,35.16,27.59,20.55,3.92,39.96-7.07,50.26-24.68.57-.95,1.11-1.92,1.62-2.9,14.68,4.65,31.43,3.46,44.37-5.36,17.3-11.76,23.26-33.25,18.08-52.99-.27-1.07-.57-2.14-.9-3.19,13.67-7.09,24.67-19.78,27.59-35.16,3.92-20.55-7.07-39.96-24.68-50.26ZM187.61,131.99c-.48.21-.59,2.75,0,3,6.4,2.8,12.21,6.36,17.46,10.83,7.94,6.75,14.47,15.29,18.56,24.88-15.96,6.44-34.84,6.12-50.7-.22-.49-.2-2.36,1.53-2.13,2.12,2.54,6.51,4.14,13.13,4.69,20,.84,10.39-.58,21.04-4.48,30.71-15.84-6.73-28.96-20.31-35.68-36.01-.21-.48-2.75-.59-3-.01-2.8,6.4-6.36,12.21-10.83,17.46-6.75,7.94-15.29,14.47-24.88,18.56-6.44-15.96-6.12-34.84.22-50.7.2-.49-1.53-2.36-2.12-2.13-6.51,2.54-13.13,4.14-20,4.69-10.39.84-21.04-.58-30.71-4.48,6.73-15.84,20.31-28.96,36.01-35.68.48-.21.59-2.75,0-3-6.4-2.8-12.21-6.36-17.46-10.83-7.94-6.75-14.47-15.29-18.56-24.88,15.96-6.44,34.84-6.12,50.7.22.49.2,2.36-1.53,2.13-2.12-2.54-6.51-4.14-13.13-4.69-20-.84-10.39.58-21.04,4.48-30.71,15.84,6.73,28.96,20.31,35.68,36.01.21.48,2.75.59,3,.01,2.8-6.4,6.36-12.21,10.83-17.46,6.75-7.94,15.29-14.47,24.88-18.56,6.44,15.96,6.12,34.84-.22,50.7-.2.49,1.53,2.36,2.12,2.13,6.51-2.54,13.13-4.14,20-4.69,10.39-.84,21.04.58,30.71,4.48-6.73,15.84-20.31,28.96-36.01,35.68ZM228.11,76.27c-.09,3.05-.44,6.05-1.04,9.01-9.07-2.6-18.73-3.22-28.01-1.88-4.98.73-9.85,2-14.47,3.85-3.22,1.29-6.31,2.85-9.21,4.68,1.83-2.9,3.39-5.99,4.68-9.21,5.32-13.4,5.94-28.63,1.95-42.52,24.36-5.08,46.59,8.88,46.1,36.08ZM160.02,26.35c2.09,2.22,3.97,4.59,5.63,7.1-8.25,4.58-15.52,10.97-21.14,18.48-3.01,4.04-5.55,8.38-7.51,12.95-1.36,3.19-2.45,6.48-3.2,9.82-.75-3.34-1.84-6.63-3.2-9.82-5.71-13.24-16.04-24.44-28.69-31.45,13.65-20.83,39.18-26.67,58.1-7.09ZM76.58,39.19c3.05.09,6.05.44,9.01,1.04-2.6,9.07-3.22,18.73-1.88,28.01.73,4.98,2,9.85,3.85,14.47,1.29,3.22,2.85,6.31,4.68,9.21-2.9-1.83-5.99-3.39-9.21-4.68-13.4-5.32-28.63-5.94-42.52-1.95-5.08-24.36,8.88-46.59,36.08-46.1ZM26.66,107.28c2.22-2.09,4.59-3.97,7.1-5.63,4.58,8.25,10.97,15.52,18.48,21.14,4.04,3.01,8.38,5.55,12.95,7.51,3.19,1.36,6.48,2.45,9.82,3.2-3.34.75-6.63,1.84-9.82,3.2-13.24,5.71-24.44,16.04-31.45,28.69-20.83-13.65-26.67-39.18-7.09-58.1ZM39.5,190.72c.09-3.05.44-6.05,1.04-9.01,9.07,2.6,18.73,3.22,28.01,1.88,4.98-.73,9.85-2,14.47-3.85,3.22-1.29,6.31-2.85,9.21-4.68-1.83,2.9-3.39,5.99-4.68,9.21-5.32,13.4-5.94,28.63-1.95,42.52-24.36,5.08-46.59-8.88-46.1-36.08ZM107.59,240.64c-2.09-2.22-3.97-4.59-5.63-7.1,8.25-4.58,15.52-10.97,21.14-18.48,3.01-4.04,5.55-8.38,7.51-12.95,1.36-3.19,2.45-6.48,3.2-9.82.75,3.34,1.84,6.63,3.2,9.82,5.71,13.24,16.04,24.44,28.69,31.45-13.65,20.83-39.18,26.67-58.1,7.09ZM191.03,227.8c-3.05-.09-6.05-.44-9.01-1.04,2.6-9.07,3.22-18.73,1.88-28.01-.73-4.98-2-9.85-3.85-14.47-1.29-3.22-2.85-6.31-4.68-9.21,2.9,1.83,5.99,3.39,9.21,4.68,13.4,5.32,28.63,5.94,42.52,1.95,5.08,24.36-8.88,46.59-36.08,46.1ZM240.95,159.71c-2.22,2.09-4.59,3.97-7.1,5.63-4.58-8.25-10.97-15.52-18.48-21.14-4.04-3.01-8.38-5.55-12.95-7.51-3.19-1.36-6.48-2.45-9.82-3.2,3.34-.75,6.63-1.84,9.82-3.2,13.24-5.71,24.44-16.04,31.45-28.69,20.83,13.65,26.67,39.18,7.09,58.1Z"/>
</svg>